<svg id="图层_1" data-name="图层 1" xmlns="http://www.w3.org/2000/svg" viewBox="0 0 259.34 290.19">
  <g>
    <g>
      <polygon points="197.2 34.99 136.59 69.98 136.59 132.14 251.03 66.07 197.2 34.99"/>
      <polygon points="181.43 25.89 136.59 0 136.59 51.77 181.43 25.89"/>
    </g>
    <g>
      <polygon points="60.61 175.66 0 140.67 0 78.52 114.44 144.59 60.61 175.66"/>
      <polygon points="44.84 184.77 0 210.66 0 158.88 44.84 184.77"/>
    </g>
    <g>
      <polygon points="68.71 101.06 68.71 31.08 122.54 0 122.54 132.14 68.71 101.06"/>
      <polygon points="52.94 91.96 8.1 66.07 52.94 40.18 52.94 91.96"/>
    </g>
    <polygon points="189.91 259.11 189.91 189.13 136.08 158.05 136.08 290.19 189.91 259.11"/>
    <polygon points="205.68 250.01 250.52 224.12 205.68 198.24 205.68 250.01"/>
    <g>
      <polygon points="259.33 148.5 198.73 113.51 144.9 144.59 259.33 210.66 259.33 148.5"/>
      <polygon points="259.33 130.29 259.33 78.52 214.5 104.4 259.33 130.29"/>
    </g>
    <g>
      <polygon points="122.12 220.21 61.51 255.2 7.68 224.12 122.12 158.05 122.12 220.21"/>
      <polygon points="122.12 238.42 122.12 290.19 77.28 264.31 122.12 238.42"/>
    </g>
  </g>
</svg>
