<svg id="图层_1" data-name="图层 1" xmlns="http://www.w3.org/2000/svg" viewBox="0 0 344.15 100.48">
  <defs>
    <style>
      .cls-1 {
        fill: #41b166;
      }
    </style>
  </defs>
  <polygon class="cls-1" points="68.28 12.12 47.29 24.23 47.29 45.75 86.92 22.88 68.28 12.12"/>
  <polygon class="cls-1" points="62.82 8.96 47.29 0 47.29 17.93 62.82 8.96"/>
  <polygon class="cls-1" points="20.98 60.82 0 48.71 0 27.18 39.62 50.06 20.98 60.82"/>
  <polygon class="cls-1" points="15.52 63.98 0 72.94 0 55.01 15.52 63.98"/>
  <polygon class="cls-1" points="23.79 34.99 23.79 10.76 42.43 0 42.43 45.75 23.79 34.99"/>
  <polygon class="cls-1" points="18.33 31.84 2.8 22.88 18.33 13.91 18.33 31.84"/>
  <polygon class="cls-1" points="65.75 89.72 65.75 65.48 47.12 54.72 47.12 100.48 65.75 89.72"/>
  <polygon class="cls-1" points="71.22 86.56 86.74 77.6 71.22 68.64 71.22 86.56"/>
  <polygon class="cls-1" points="89.79 51.42 68.81 39.3 50.17 50.06 89.79 72.94 89.79 51.42"/>
  <polygon class="cls-1" points="89.79 45.11 89.79 27.18 74.27 36.15 89.79 45.11"/>
  <polygon class="cls-1" points="42.28 76.25 21.3 88.36 2.66 77.6 42.28 54.72 42.28 76.25"/>
  <polygon class="cls-1" points="42.28 82.55 42.28 100.48 26.76 91.51 42.28 82.55"/>
  <g>
    <path d="M129.78,27.39a96.7,96.7,0,0,1,14.82-1c7.35,0,12.86,1.25,16.52,3.94a13,13,0,0,1,5.45,10.83,14,14,0,0,1-4.81,11.16c-4.07,3.56-10.44,5.25-17.26,5.25a29.73,29.73,0,0,1-4.47-.26V76.15H129.78Zm10.25,23a22,22,0,0,0,4.36.33c7.47,0,11.92-3.42,11.92-9.17,0-5.21-3.85-8.43-10.95-8.43a28,28,0,0,0-5.33.41Z"/>
    <path d="M195,76.15l-.67-3.88h-.25c-2.44,2.8-6.5,4.62-11.47,4.62C174.74,76.89,170,72,170,66.29c0-9.06,9.46-13.41,23.31-13.4V52.2c0-2.76-1.3-6.28-8-6.26A23,23,0,0,0,175,48.4l-2-5.7a33,33,0,0,1,14.31-3c12.83,0,16.39,6.94,16.39,14.7V67.69a45.9,45.9,0,0,0,.63,8.46Zm-1.4-17.6c-6.4,0-13.45,1.15-13.45,6.81,0,3.66,2.68,5.25,5.67,5.25,3.71,0,6.55-2,7.5-4.68A5.77,5.77,0,0,0,193.6,64Z"/>
    <path d="M214.23,50.9c0-4.1-.17-7.33-.35-10.45h9l.51,5h.23c1.92-2.8,6.22-5.76,12.5-5.76,7.31,0,13.84,4.19,13.84,14.58V76.15H239.63V55.26c0-4.66-1.84-8.43-7.17-8.43a7.72,7.72,0,0,0-7.41,5,8.09,8.09,0,0,0-.49,3V76.15H214.23Z"/>
    <path d="M296.49,24.49V66.25c0,3.44.17,7.38.34,9.9h-9.09l-.51-5.23H287c-2.21,3.56-6.78,6-12.32,6-9.58,0-16.59-7.36-16.59-18.27-.05-12.13,8.11-18.91,17.33-18.91,5.12,0,8.83,1.84,10.57,4.42h.17V24.49ZM286.18,55a10.74,10.74,0,0,0-.21-2.31,8,8,0,0,0-8-6.06c-6.26,0-9.45,5.28-9.45,11.83,0,6.73,3.39,11.47,9.3,11.47a8,8,0,0,0,8-5.82,8.35,8.35,0,0,0,.32-2.53Z"/>
    <path d="M344.15,58c0,13.5-10.33,18.86-19.88,18.86-11.1,0-19.44-6.77-19.44-18.38,0-12.06,8.69-18.8,20-18.8C336.4,39.71,344.15,46.93,344.15,58Zm-28.8.28c0,6.61,3.22,12.18,9.25,12.18,5.71,0,9-5.62,9-12.26,0-5.48-2.38-12.11-9-12.11S315.35,52.6,315.35,58.31Z"/>
  </g>
</svg>
