<svg id="图层_1" data-name="图层 1" xmlns="http://www.w3.org/2000/svg" viewBox="0 0 259.34 373.6">
  <defs>
    <style>
      .cls-1 {
        fill: #41b166;
      }

      .cls-2 {
        fill: #fff;
      }
    </style>
  </defs>
  <polygon class="cls-1" points="197.2 34.99 136.59 69.98 136.59 132.14 251.03 66.07 197.2 34.99"/>
  <polygon class="cls-1" points="181.43 25.89 136.59 0 136.59 51.77 181.43 25.89"/>
  <polygon class="cls-1" points="60.61 175.66 0 140.67 0 78.52 114.44 144.59 60.61 175.66"/>
  <polygon class="cls-1" points="44.84 184.77 0 210.66 0 158.88 44.84 184.77"/>
  <polygon class="cls-1" points="68.71 101.06 68.71 31.08 122.54 0 122.54 132.14 68.71 101.06"/>
  <polygon class="cls-1" points="52.94 91.96 8.1 66.07 52.94 40.18 52.94 91.96"/>
  <polygon class="cls-1" points="189.91 259.11 189.91 189.13 136.08 158.05 136.08 290.19 189.91 259.11"/>
  <polygon class="cls-1" points="205.68 250.01 250.52 224.12 205.68 198.24 205.68 250.01"/>
  <polygon class="cls-1" points="259.33 148.5 198.73 113.51 144.9 144.59 259.33 210.66 259.33 148.5"/>
  <polygon class="cls-1" points="259.33 130.29 259.33 78.52 214.5 104.4 259.33 130.29"/>
  <polygon class="cls-1" points="122.12 220.21 61.51 255.2 7.68 224.12 122.12 158.05 122.12 220.21"/>
  <polygon class="cls-1" points="122.12 238.42 122.12 290.19 77.28 264.31 122.12 238.42"/>
  <g>
    <path class="cls-2" d="M26.27,325.86a93.11,93.11,0,0,1,14.29-1c7.09,0,12.4,1.21,15.94,3.81a12.55,12.55,0,0,1,5.26,10.44,13.53,13.53,0,0,1-4.64,10.76C53.19,353.34,47.05,355,40.46,355a28.87,28.87,0,0,1-4.3-.25v18.16H26.27Zm9.89,22.22a21.14,21.14,0,0,0,4.2.32c7.2,0,11.5-3.29,11.5-8.85,0-5-3.72-8.13-10.57-8.13a28,28,0,0,0-5.13.39Z"/>
    <path class="cls-2" d="M89.19,372.89l-.66-3.74H88.3c-2.36,2.7-6.27,4.45-11.07,4.45-7.59,0-12.15-4.73-12.15-10.22,0-8.74,9.13-12.94,22.49-12.92v-.67c0-2.66-1.25-6.05-7.67-6a22.3,22.3,0,0,0-10,2.37l-2-5.5a32,32,0,0,1,13.81-2.88c12.37,0,15.81,6.7,15.81,14.19v12.8a43.58,43.58,0,0,0,.61,8.16Zm-1.36-17c-6.17,0-13,1.11-13,6.58,0,3.52,2.58,5.06,5.47,5.06,3.58,0,6.31-2,7.24-4.52a5.83,5.83,0,0,0,.26-1.85Z"/>
    <path class="cls-2" d="M107.74,348.54c0-4-.17-7.08-.34-10.08h8.68l.5,4.83h.21c1.86-2.69,6-5.55,12.06-5.55,7.06,0,13.35,4.05,13.35,14.07v21.08h-10V352.74c0-4.49-1.77-8.13-6.91-8.13a7.46,7.46,0,0,0-7.16,4.84,8,8,0,0,0-.47,2.87v20.57h-10Z"/>
    <path class="cls-2" d="M187.09,323.06v40.28c0,3.32.16,7.12.33,9.55h-8.77l-.49-5H178c-2.14,3.43-6.54,5.75-11.89,5.75-9.24,0-16-7.1-16-17.62,0-11.7,7.82-18.24,16.71-18.24,4.95,0,8.52,1.77,10.2,4.27h.17V323.06Zm-9.94,29.39a10.63,10.63,0,0,0-.2-2.23,7.73,7.73,0,0,0-7.71-5.84c-6,0-9.12,5.09-9.12,11.41,0,6.49,3.27,11.07,9,11.07a7.78,7.78,0,0,0,7.75-5.62,8.11,8.11,0,0,0,.31-2.44Z"/>
    <path class="cls-2" d="M233.07,355.41c0,13-10,18.19-19.18,18.19-10.71,0-18.75-6.52-18.75-17.72,0-11.64,8.38-18.14,19.33-18.14C225.6,337.74,233.07,344.7,233.07,355.41Zm-27.78.28c0,6.37,3.11,11.74,8.92,11.74,5.51,0,8.71-5.41,8.71-11.82,0-5.29-2.31-11.69-8.71-11.69S205.29,350.17,205.29,355.69Z"/>
  </g>
</svg>
